# xmcd
#
# Track frame offsets: 
#        150
#        9231
#        19774
#        30555
#        40401
#        55141
#        65731
#        75251
#        86474
#        97112
#        109046
#        119348
#        129837
#        143371
#        154023
#        164280
#        174563
#        187422
#        199009
#        209022
#        221564
#        236095
#        249368
#        259827
#
# Disc length: 3653 seconds
#
# Revision: 0
# Processed by: cddbd v1.5.2PL0 Copyright (c) Steve Scherf et al.
# Submitted via: ExactAudioCopy v1.0b3
#
DISCID=470e4318
DTITLE=The Louvin Brothers - Country Love Ballads - Satan Is Real
DYEAR=1958
DGENRE=Country
TTITLE0=Are You Wasting My Time
TTITLE1=If I Could Only Win Your Love
TTITLE2=Today
TTITLE3=Read What's in My Heart
TTITLE4=I Wonder If You Know
TTITLE5=Memories and Tears
TTITLE6=On My Way to the Show
TTITLE7=My Heart Was Trampled on the Street
TTITLE8=She'll Get Lonesome
TTITLE9=Red Hen Hop
TTITLE10=Blue
TTITLE11=Send Me the Pillow That You Dream On
TTITLE12=Satan Is Real
TTITLE13=There's a Higher Power
TTITLE14=The Christian Life
TTITLE15=The River of Jordan
TTITLE16=The Kneeling Drunkard's Plea
TTITLE17=Are You Afraid to Die
TTITLE18=He Can Be Found
TTITLE19=Dying from Home, And Lost
TTITLE20=The Drunkard's Doom
TTITLE21=Satan's Jeweled Crown
TTITLE22=The Angels Rejoiced Last Night
TTITLE23=I'm Ready to Go Home
EXTD=
EXTT0=
EXTT1=
EXTT2=
EXTT3=
EXTT4=
EXTT5=
EXTT6=
EXTT7=
EXTT8=
EXTT9=
EXTT10=
EXTT11=
EXTT12=
EXTT13=
EXTT14=
EXTT15=
EXTT16=
EXTT17=
EXTT18=
EXTT19=
EXTT20=
EXTT21=
EXTT22=
EXTT23=
PLAYORDER=
